<svg height="400" viewBox="0 0 1350 400" width="1350" xmlns="http://www.w3.org/2000/svg" xmlns:xlink="http://www.w3.org/1999/xlink"><filter id="a" filterUnits="userSpaceOnUse" height="323" width="390" x="-21" y="56"><feOffset in="SourceAlpha" result="offset"/><feGaussianBlur result="blur" stdDeviation="7.071"/><feFlood flood-opacity=".4" result="flood"/><feComposite in2="blur" operator="in" result="composite"/><feBlend in="SourceGraphic" result="blend"/></filter><filter id="b" filterUnits="userSpaceOnUse" height="323" width="391" x="979" y="56"><feOffset in="SourceAlpha" result="offset"/><feGaussianBlur result="blur" stdDeviation="7.071"/><feFlood flood-opacity=".4" result="flood"/><feComposite in2="blur" operator="in" result="composite"/><feBlend in="SourceGraphic" result="blend"/></filter><filter id="c" filterUnits="userSpaceOnUse" height="328" width="1160" x="93" y="-2"><feOffset in="SourceAlpha" result="offset"/><feGaussianBlur result="blur" stdDeviation="7.071"/><feFlood flood-opacity=".4" result="flood"/><feComposite in2="blur" operator="in" result="composite"/><feBlend in="SourceGraphic" result="blend"/></filter><g fill-rule="evenodd"><path d="m28.113 141.132 265.512-35.5 25.008 187.023-265.512 35.5zm69.04 85.962-44.031 101.067-25.007-187.015z" fill="#6fc48c" filter="url(#a)"/><path d="m173.078 274.576 145.591 18.345-9.935-74.3z" fill="#43915d"/><path d="m1319.04 141.132-265.51-35.5-25.01 187.023 265.51 35.5zm-69.04 85.962 44.03 101.067 25.01-187.015z" fill="#6fc48c" filter="url(#b)"/><path d="m1174.08 274.576-145.59 18.345 9.93-74.3z" fill="#43915d"/><path d="m142.62 89.656a3387.232 3387.232 0 0 1 1059.76 0q-14.685 92.75-29.38 185.5a3199.439 3199.439 0 0 0 -1001 0q-14.69-92.75-29.38-185.5" fill="#6fc48c" filter="url(#c)"/><path d="m231.471 130.3q-4.488.7-8.974 1.407l1.557 9.832q4.6.129 9.2.274 4.531 29.2 9.062 58.407-4.248 1.517-8.488 3.048l1.548 9.776q16.954-2.685 33.933-5.161l-1.428-9.795q-4.532-.2-9.065-.378-1.6-10.742-3.2-21.482 6.807-1.014 13.618-2 5.893-.678 9.592 2.261t4.52 8.876q.324 2.325.649 4.649.956 6.836 4.83 10.692t11.927 2.77q4.257-.571 8.515-1.13-.648-4.935-1.295-9.87l-2.074-.013a4.86 4.86 0 0 1 -3.8-1.293 7.087 7.087 0 0 1 -1.633-4.033l-.555-4.137a22.279 22.279 0 0 0 -4.866-11.873q-3.891-4.527-11.561-5.641a24 24 0 0 0 8.9-8.7 17.615 17.615 0 0 0 1.951-11.162q-1.5-11.211-10.516-16.471-9.032-5.242-23.432-3.185-14.464 2.094-28.914 4.336m18.792 10.013q5.972-.89 11.945-1.755 6.811-.986 10.768 1.8a11.545 11.545 0 0 1 4.715 8.276q.767 5.492-2.323 8.894t-10.067 4.41q-5.781.837-11.56 1.7-1.74-11.664-3.478-23.328m112.151 6.361q-14.172 1.555-28.332 3.254-1.233-10.278-2.465-20.554 13.482-1.617 26.974-3.1.916 4.85 1.83 9.7 6.464-.711 12.929-1.393-1.182-11.222-2.366-22.443-28.948 3.053-57.848 6.692-4.5.567-9 1.148l1.275 9.873q4.593.263 9.182.539l7.386 58.642q-4.286 1.4-8.563 2.8.633 4.908 1.267 9.816 32.491-4.2 65.051-7.628-1.18-11.193-2.36-22.387-6.324.668-12.647 1.362.168 4.932.338 9.864-13.338 1.47-26.665 3.069l-2.8-23.362q14.1-1.691 28.205-3.239-.695-6.326-1.388-12.65m88.15-30.3a37.624 37.624 0 0 0 -13.818-8.114 43.4 43.4 0 0 0 -18.065-1.946c-11.465 1.016-20.456 5.741-26.894 14.1s-9.007 18.509-7.789 30.4l.282 2.757c1.222 11.929 5.787 21.33 13.611 28.249s17.22 9.867 28.269 8.888a43.219 43.219 0 0 0 17-4.888 36.123 36.123 0 0 0 12.009-10.182l-1.263-16.242q-6.205.481-12.409.992-.408 5.54-.809 11.077a15.112 15.112 0 0 1 -5.967 4.36 27.515 27.515 0 0 1 -8.831 2.185q-10.569.935-17.1-6.334t-7.767-19.77q-.138-1.435-.277-2.872-1.2-12.5 3.977-20.832t16.238-9.318a25.662 25.662 0 0 1 9.086.632 17.7 17.7 0 0 1 6.612 3.3q1.321 5.4 2.637 10.793 6.262-.516 12.527-1l-1.263-16.241m63.622 17.742q-14.219.795-28.432 1.732l-1.362-20.657q13.533-.891 27.07-1.655.656 4.891 1.308 9.783 6.485-.364 12.971-.7-.58-11.268-1.163-22.537-29.04 1.5-58.054 3.583-4.519.326-9.038.664.372 4.963.745 9.927 4.566.508 9.129 1.031 2.118 29.477 4.237 58.953-4.349 1.162-8.689 2.339.369 4.935.74 9.871 32.625-2.448 65.287-4.132-.579-11.241-1.159-22.481-6.345.327-12.688.682-.1 4.935-.189 9.868-13.383.754-26.76 1.636l-1.548-23.478q14.149-.933 28.3-1.724-.355-6.353-.71-12.706m28.67-34.913q-4.526.2-9.049.424.24 4.972.481 9.942 4.549.63 9.094 1.273 1.335 29.523 2.671 59.045-4.376 1.047-8.745 2.108.24 4.944.478 9.887 17.1-.828 34.2-1.446l-.357-9.891q-4.471-.687-8.948-1.361l-.717-18.255q7.052-.276 14.1-.518c9.555-.328 17.02-2.933 22.434-7.866s8.048-11.325 7.865-19.2q-.273-11.76-8.864-18.819-8.61-7.042-23.234-6.567-15.71.539-31.416 1.249m17.55 12q7.151-.282 14.3-.527 7.094-.243 10.846 3.525a13.761 13.761 0 0 1 3.917 9.7 13.311 13.311 0 0 1 -3.324 9.691q-3.492 3.871-10.513 4.1-7.084.243-14.168.521-.521-13.515-1.052-27.015m49.848-14.254q.24 10.97.478 21.94 6.465-.141 12.929-.252.269-4.615.539-9.23 7.765-.132 15.531-.222.336 29.013.673 58.026-4.435.9-8.866 1.814.073 4.949.146 9.9 17.141-.253 34.282-.3-.014-4.95-.025-9.9-4.446-.837-8.9-1.661-.163-29.014-.329-58.029 7.8-.045 15.59-.046.351 4.61.7 9.219 6.495 0 12.989.03.049-10.972.1-21.945-37.921-.173-75.839.653m159.844 58.793q-.223 6.472-.446 12.944-4.445.7-8.884 1.406l-.309 9.893q17.106.535 34.207 1.28.216-4.944.431-9.888-4.4-1.041-8.812-2.068l2.385-59.057q4.571-.665 9.146-1.315.216-4.972.433-9.945-15.707-.684-31.418-1.2-11.912 29.972-23.364 60.04l-.343-.008q-9.852-30.6-20.164-61.128-11.129-.193-22.26-.3-4.529-.044-9.056-.073-.033 4.977-.065 9.955 4.508.878 9.009 1.769-.285 29.552-.569 59.1-4.425.807-8.845 1.626-.031 4.948-.064 9.9 17.112.111 34.223.431l.186-9.9q-4.427-.931-8.859-1.849.1-6.476.2-12.951-.52-18.081-1.062-36.162l.349-.051q10.791 30.539 21.1 61.158 5.56.127 11.122.277 11.886-30.175 24.254-60.25l.346.069q-1.449 18.144-2.875 36.29m29.616 25.748q14.066.638 28.126 1.417.273-4.941.548-9.883-2.846-.667-5.693-1.329 2.124-5.55 4.261-11.1 13.486.738 26.967 1.6 1.465 5.763 2.915 11.526-2.905.318-5.81.644-.315 4.94-.628 9.878 14.055.894 28.1 1.929.365-4.936.728-9.872-2.925-.64-5.852-1.275-9.956-36.606-20.555-73.143-8.722-.546-17.448-1.039-14.946 35.015-29.253 70.18-2.98.284-5.959.573-.225 4.944-.449 9.888m43-61.237.347.021q3.891 14.766 7.685 29.54-9.581-.6-19.165-1.14 5.518-14.221 11.133-28.421m37.758-16.5-1.581 21.888q6.453.466 12.9.962.7-4.569 1.4-9.139 7.749.6 15.5 1.236-2.386 28.917-4.771 57.834-4.5.48-9 .974-.391 4.934-.782 9.867 17.1 1.358 34.188 2.923.452-4.929.9-9.857-4.351-1.251-8.71-2.488l5.115-57.8q7.772.687 15.541 1.417-.083 4.623-.169 9.244 6.472.61 12.944 1.249l2.167-21.834q-37.782-3.732-75.633-6.467m147.494 26.049a37.736 37.736 0 0 0 -11.93-10.719 43.475 43.475 0 0 0 -17.322-5.528c-11.443-1.3-21.2 1.526-29.185 8.429s-12.534 16.326-13.724 28.226l-.276 2.758c-1.192 11.933 1.4 22.057 7.677 30.4s14.9 13.117 25.925 14.371a43.282 43.282 0 0 0 17.653-1.38 36.193 36.193 0 0 0 13.82-7.568l2.01-16.164q-6.18-.771-12.36-1.515-1.515 5.343-3.02 10.689a15.134 15.134 0 0 1 -6.72 3.077 27.616 27.616 0 0 1 -9.1.37q-10.548-1.2-15.493-9.632t-3.65-20.926q.151-1.434.3-2.868 1.323-12.486 8.071-19.614t17.784-5.875a25.741 25.741 0 0 1 8.783 2.44 17.72 17.72 0 0 1 5.82 4.563l.42 11.1q6.255.75 12.49 1.529 1-8.082 2.02-16.164m16.69 2.3q-3.825 29.3-7.66 58.606-4.5.269-8.99.55-.63 4.909-1.25 9.818 16.995 2.169 33.99 4.547l1.38-9.8c-2.87-.972-5.73-1.939-8.6-2.9q1.53-11.208 3.07-22.416 16.95 2.317 33.87 4.84-1.665 11.189-3.34 22.377-4.53.182-9.06.379-.72 4.9-1.43 9.794 16.98 2.477 33.93 5.161c.52-3.258 1.03-6.517 1.55-9.776-2.85-1.023-5.69-2.042-8.55-3.057q4.545-29.2 9.07-58.406 4.62-.141 9.26-.266c.52-3.277 1.03-6.555 1.55-9.832q-4.515-.716-9.03-1.416-8.43-1.306-16.86-2.564-4.515-.673-9.04-1.333-.72 4.925-1.43 9.85 4.38 1.5 8.76 3.007l-3.51 23.5q-16.995-2.535-34.02-4.862 1.62-11.769 3.22-23.536c3.08-.15 6.17-.294 9.25-.434l1.38-9.858q-17.49-2.448-35-4.68l-1.26 9.874q4.38 1.413 8.75 2.841" fill="#fff"/></g></svg>