<?xml version="1.0" standalone="no"?>
<!DOCTYPE svg PUBLIC "-//W3C//DTD SVG 20010904//EN"
 "http://www.w3.org/TR/2001/REC-SVG-20010904/DTD/svg10.dtd">
<svg version="1.0" xmlns="http://www.w3.org/2000/svg"
 width="1920.000000pt" height="1920.000000pt" viewBox="0 0 1920.000000 1920.000000"
 preserveAspectRatio="xMidYMid meet">
<metadata>
Created by potrace 1.11, written by Peter Selinger 2001-2013
</metadata>
<g transform="translate(0.000000,1920.000000) scale(0.100000,-0.100000)"
fill="#000000" stroke="none">
<path d="M8760 11047 c-71 -35 -94 -155 -289 -1482 -232 -1576 -303 -2111
-366 -2770 -20 -204 -43 -433 -51 -510 -45 -413 1 -707 154 -995 109 -205 169
-277 557 -670 303 -306 346 -356 379 -440 33 -82 37 -355 34 -2286 l-3 -1881
155 -7 c197 -8 381 -8 542 1 121 6 127 7 117 25 -7 13 -9 602 -6 1781 4 1655
5 1779 25 2049 l20 287 33 63 c27 51 90 121 339 373 322 326 396 411 515 590
124 185 181 319 217 513 29 150 8 692 -48 1232 -18 177 -166 1323 -199 1545
-13 88 -38 264 -55 390 -17 127 -46 331 -65 455 -19 124 -44 293 -55 375 -12
83 -50 321 -85 530 -35 209 -71 436 -80 503 -20 154 -54 266 -95 310 -26 29
-35 33 -72 30 -35 -2 -45 -8 -56 -30 -11 -23 -2 -369 56 -2110 44 -1350 65
-2098 59 -2125 -11 -56 -54 -93 -107 -93 -85 0 -126 42 -140 143 -19 134 -58
757 -180 2822 -38 655 -73 1215 -76 1245 -10 81 -31 129 -62 137 -31 7 -53 -5
-72 -43 -20 -40 -20 -84 -28 -2324 -7 -1891 -7 -1915 -27 -1949 -31 -53 -77
-73 -157 -69 -61 3 -71 7 -102 37 -20 19 -39 50 -45 74 -7 29 -13 683 -19
2124 -8 1911 -10 2084 -25 2107 -34 51 -94 59 -118 15 -18 -34 -32 -240 -154
-2249 -63 -1042 -118 -1914 -121 -1936 -13 -90 -71 -140 -151 -131 -52 6 -87
35 -104 84 -8 24 -8 134 1 411 20 694 118 3180 141 3580 12 215 8 251 -32 272
-24 14 -69 12 -99 -3z"/>
</g>
</svg>
