<svg clip-rule="evenodd" fill-rule="evenodd" stroke-linejoin="round" stroke-miterlimit="2" viewBox="0 0 694 242" xmlns="http://www.w3.org/2000/svg"><g transform="matrix(1 0 0 .529408 -62.9308 -43.2408)"><path d="m725.573 479.026-325.573-338.163-305.736 338.163" fill="none"/><path d="m404.948 82.42c5.219 2.461 5.232 2.469 10.15 6.581l325.573 338.163c1.513 1.913 3.119 3.585 4.538 5.74 11.373 17.275 14.893 50.344 7.82 74.64-7.031 24.155-23.661 36.446-37.556 27.508-1.724-1.108-3.332-2.776-4.997-4.164l-309.99-321.976-290.389 321.188-4.936 4.417c-1.756.911-3.476 2.113-5.267 2.731-12.584 4.342-26.188-7.411-32.669-28.315-7.374-23.788-4.435-57.059 6.752-75.011 1.387-2.227 2.969-3.98 4.454-5.97l305.736-338.162c4.302-3.863 5.318-5.418 10.052-7.096 3.521-1.249 7.141-.766 10.729-.274z"/></g></svg>