<svg viewBox="0 0 999.91 995.41" xmlns="http://www.w3.org/2000/svg"><circle cx="499.57" cy="497.7" fill="#fff" r="490.29"/><path d="m519.59 983.41c.15-28.32.15-158.41.15-166.7.19-14.48 1.29-24.6 2-39.08.28-5.67 3.63-9.79 7.34-13.54 8-8.13 16.5-15.84 24.3-24.18a142.71 142.71 0 0 0 17.94-23.85c6.83-11.34 8.77-23.66 8.42-36.84s-1.59-26.36-2.63-39.51-3-26.19-4.62-39.27-3.31-26.08-5.09-39.1c-1.51-11.07-3.46-22.08-4.72-33.18-1.35-12-3.75-23.84-5.25-35.82-2.06-16.45-5.31-32.74-8-49.1-1.06-6.38-.83-13-3.51-19.09a10.92 10.92 0 0 0 -2.45-4.12 5 5 0 0 0 -5.06-1.19c-2 .74-2 4.85-1.87 6.28.18 2.41 7 210.22 6.94 211.31-.23 3.6-1.59 6.45-5.57 6.84-4.37.43-6.77-2-7.55-6.11-1.6-8.41-11.51-187.71-13-209.36a23.79 23.79 0 0 0 -.79-4.75c-.59-2.53-1.82-4.1-3.72-3.93-2.07.2-2.73 2.36-3.08 3.93s-.64 4.81-.64 4.81-.37 200.88-.52 208.81c-.13 6.82-4.29 8.86-9.24 8.81-4.69 0-8-3.53-8.11-9-.17-12.34-.84-182.19-.83-196.63 0-5.23-.29-10.47-.28-15.71 0-2.67-1.43-4.31-3.68-4.64-2.87-.42-3.72 2.32-3.8 4.29-.19 4.89-.89 9.73-1.18 14.59-1.26 21.14-12 197.22-12 197.22-.6 4.46-2.78 7.8-7.56 7.62-5.29-.2-6.51-5-6.18-8.73-.07-21.43 7.62-201.22 7.62-201.22s.69-7.75.56-10c-.22-3.22-2.18-4.36-3.76-4.38-2.92-.06-4.9.73-5.93 3.51-2.34 6.3-3.2 13-4.27 19.52-2.81 17.25-5.28 34.55-7.84 51.84-2.58 17.47-5.05 35-7.67 52.41-2.9 19.28-5.23 38.62-7.8 57.93-2.88 21.51-4.2 43.15-6.68 64.68-3 26.24 4.89 48.32 22.79 67.14 9 9.47 18.41 18.54 27.62 27.8 4 4 6.9 8.33 7.27 14.54.74 12.84 1.1 25.69.89 38.52v164.45c0 3.87.19 5.58-.85 6.27q11 .48 22.06.49 10.5 0 20.91-.44c-.89-.66-1.08-1.95-1.08-4.14z" fill="#6fc48c"/><g fill="#c0dec3"><path d="m509.86 251.7c23.6-17 30.7-40.09 27.65-67.66-2.36-21.35-9.46-41.26-18.43-60.59-2.8-6-5.62-12.06-9.69-17.54 3.14 20.37-2.67 38.82-11.44 56.63-10.08 20.49-23.4 38.8-38.57 55.74-14.46 16.14-24.08 34.12-22.38 56.45 1.44 18.86 9.61 35.15 20.73 50.08 2.77 3.71 5.38 7.64 10.17 10.67.66-7.26 0-13.63 1.08-19.91 4.79-26.96 19.08-48.12 40.88-63.87z"/><path d="m533.79 247.36a161.18 161.18 0 0 1 -24.2 22.57c-27.77 21.7-33.21 51.91-23.47 81.85 1.3 4 2.7 4 5.26.76a216.62 216.62 0 0 1 43.62-41.47c10.41-7.47 18.46-16.83 22.91-29 8.74-23.81 3.25-46.26-6.88-68.38-2.54 13.02-8.94 23.85-17.24 33.67z"/></g></svg>