<svg height="90" viewBox="0 0 331 90" width="331" xmlns="http://www.w3.org/2000/svg" xmlns:xlink="http://www.w3.org/1999/xlink"><filter id="a" filterUnits="userSpaceOnUse" height="77" width="89" x="242" y="13"><feOffset dy="3"/><feGaussianBlur result="b" stdDeviation="3"/><feFlood flood-opacity=".161"/><feComposite in2="b" operator="in"/><feComposite in="SourceGraphic"/></filter><filter id="b" filterUnits="userSpaceOnUse" height="77" width="89" x="0" y="13"><feOffset dy="3"/><feGaussianBlur result="d" stdDeviation="3"/><feFlood flood-opacity=".161"/><feComposite in2="d" operator="in"/><feComposite in="SourceGraphic"/></filter><filter id="c" filterUnits="userSpaceOnUse" height="77" width="257" x="37" y="0"><feOffset dy="3"/><feGaussianBlur result="f" stdDeviation="3"/><feFlood flood-opacity=".161"/><feComposite in2="f" operator="in"/><feComposite in="SourceGraphic"/></filter><g filter="url(#a)"><path d="m1020 1920h-71l17.937-29.5-17.937-29.5h71z" fill="#6fc48c" transform="matrix(-1 0 0 -1 1271 1939)"/></g><g filter="url(#b)"><path d="m1020 1920h-71l17.937-29.5-17.937-29.5h71z" fill="#6fc48c" transform="translate(-940 -1842)"/></g><path d="m13 0 13 34h-26z" fill="#43915d" transform="matrix(0 -1 1 0 46 78)"/><path d="m13 0 13 34h-26z" fill="#43915d" transform="matrix(0 1 -1 0 285 52)"/><g filter="url(#c)"><path d="m0 0h239v59h-239z" fill="#6fc48c" transform="translate(46 6)"/></g><text fill="#fff" font-family="RobotoSlab-Bold, Roboto Slab" font-size="36" font-weight="700" transform="translate(166 49)"><tspan x="-100.424" y="0">EN MATCH!</tspan></text></svg>